<?xml version="1.0" encoding="UTF-8" standalone="no"?>
<!DOCTYPE svg PUBLIC "-//W3C//DTD SVG 1.1//EN" "http://www.w3.org/Graphics/SVG/1.1/DTD/svg11.dtd">
<svg width="100%" height="100%" viewBox="0 0 64 64" version="1.1" xmlns="http://www.w3.org/2000/svg" xmlns:xlink="http://www.w3.org/1999/xlink" xml:space="preserve" xmlns:serif="http://www.serif.com/" style="fill-rule:evenodd;clip-rule:evenodd;stroke-linejoin:round;stroke-miterlimit:2;">
    <rect id="Artboard1" x="0" y="0" width="64" height="64"/>
    <clipPath id="_clip1">
        <rect id="Artboard11" serif:id="Artboard1" x="0" y="0" width="64" height="64"/>
    </clipPath>
    <g clip-path="url(#_clip1)">
        <g transform="matrix(0.126984,0,0,0.131148,-0.126984,-0.393443)">
            <path d="M1,3L64,64L1,64L1,3Z" style="fill:rgb(10,183,203);"/>
        </g>
        <g transform="matrix(-0.126984,1.55511e-17,-1.60609e-17,-0.131148,64.127,8.39344)">
            <path d="M1,3L64,64L1,64L1,3Z" style="fill:rgb(10,183,203);"/>
        </g>
        <g transform="matrix(0.126984,-2.906e-18,3.00128e-18,0.131148,47.873,55.6066)">
            <path d="M1,3L64,64L1,64L1,3Z" style="fill:rgb(221,170,51);"/>
        </g>
        <g transform="matrix(-0.126984,1.55511e-17,-1.60609e-17,-0.131148,16.127,16.3934)">
            <path d="M1,3L64,64L1,64L1,3Z" style="fill:rgb(10,183,203);"/>
        </g>
        <g transform="matrix(0.126984,0,0,0.131148,15.873,15.6066)">
            <path d="M1,3L64,64L1,64L1,3Z" style="fill:rgb(10,183,203);"/>
        </g>
        <g transform="matrix(-0.126984,1.55511e-17,-1.60609e-17,-0.131148,32.127,16.3934)">
            <path d="M1,3L64,64L1,64L1,3Z" style="fill:rgb(10,183,203);"/>
        </g>
        <g transform="matrix(7.77554e-18,-0.126984,0.131148,8.03047e-18,23.6066,8.12698)">
            <path d="M1,3L64,64L1,64L1,3Z" style="fill:rgb(10,183,203);"/>
        </g>
        <g transform="matrix(0.126984,1.54074e-33,1.54074e-33,0.131148,31.873,-0.393443)">
            <path d="M1,3L64,64L1,64L1,3Z" style="fill:rgb(221,170,51);"/>
        </g>
        <g transform="matrix(7.77554e-18,0.126984,-0.131148,8.03047e-18,40.3934,7.87302)">
            <path d="M1,3L64,64L1,64L1,3Z" style="fill:rgb(10,183,203);"/>
        </g>
        <g transform="matrix(7.80626e-18,0.126984,-0.131148,8.67362e-18,24.3934,23.873)">
            <path d="M1,3L64,64L1,64L1,3Z" style="fill:rgb(221,170,51);"/>
        </g>
        <g transform="matrix(0.126984,-3.07204e-20,6.43147e-19,0.131148,15.873,31.6066)">
            <path d="M1,3L64,64L1,64L1,3Z" style="fill:rgb(10,183,203);"/>
        </g>
        <g transform="matrix(0.126984,-3.07204e-20,6.43147e-19,0.131148,23.873,39.6066)">
            <path d="M1,3L64,64L1,64L1,3Z" style="fill:rgb(221,170,51);"/>
        </g>
        <g transform="matrix(-0.126984,-1.55204e-17,1.54178e-17,-0.131148,16.127,40.3934)">
            <path d="M1,3L64,64L1,64L1,3Z" style="fill:rgb(221,170,51);"/>
        </g>
        <g transform="matrix(7.80626e-18,0.126984,-0.131148,8.67362e-18,8.39344,31.873)">
            <path d="M1,3L64,64L1,64L1,3Z" style="fill:rgb(221,170,51);"/>
        </g>
    </g>
</svg>
